<svg xmlns="http://www.w3.org/2000/svg" xmlns:xlink="http://www.w3.org/1999/xlink" width="150" height="100" viewBox="0 0 150 100" fill="none">
<rect x="0" y="0" width="0" height="0" fill="rgba(249, 249, 249, 1)" />
<path     fill="#FFFFFF"  d="M0 97L0 3C0 1.34315 1.34315 0 3 0L147 0C148.657 0 150 1.34315 150 3L150 97C150 98.6569 148.657 100 147 100L3 100C1.34315 100 0 98.6569 0 97Z">
</path>
<g style="mix-blend-mode:darken" opacity="0.8">
<g filter="url(#filter_1_1)">
<path     fill="url(#linear_fill_1_1_0)" fill-opacity="0.9" d="M81.5 39.5263L62 50.7846C54.6667 55.0185 45.5 49.7261 45.5 41.2583L45.5 18.7417C45.5 10.2739 54.6667 4.98149 62 9.21539L81.5 20.4737C88.8333 24.7076 88.8333 35.2924 81.5 39.5263Z">
</path>
</g>
</g>
<g style="mix-blend-mode:darken" opacity="0.8">
<g filter="url(#filter_1_2)">
<path     fill="url(#linear_fill_1_2_0)"  d="M69.5 20.4737L89 9.21539C96.3333 4.98149 105.5 10.2739 105.5 18.7417L105.5 41.2583C105.5 49.7261 96.3333 55.0185 89 50.7846L69.5 39.5263C62.1667 35.2924 62.1667 24.7076 69.5 20.4737Z">
</path>
</g>
</g>
<g >
<path     fill="#000000"  d="M43.8047 71.1016L40.7266 71.1016L35.7578 62.4609L35.6875 62.4609Q35.8359 64.75 35.8359 65.7266L35.8359 71.1016L33.6719 71.1016L33.6719 59.6797L36.7266 59.6797L41.6875 68.2344L41.7422 68.2344Q41.625 66.0078 41.625 65.0859L41.625 59.6797L43.8047 59.6797L43.8047 71.1016ZM50.1094 63.8984Q49.3516 63.8984 48.9219 64.3789Q48.4922 64.8594 48.4297 65.7422L51.7734 65.7422Q51.7578 64.8594 51.3125 64.3789Q50.8672 63.8984 50.1094 63.8984ZM50.4453 71.2578Q48.3359 71.2578 47.1484 70.0938Q45.9609 68.9297 45.9609 66.7969Q45.9609 64.6016 47.0586 63.4023Q48.1562 62.2031 50.0938 62.2031Q51.9453 62.2031 52.9766 63.2578Q54.0078 64.3125 54.0078 66.1719L54.0078 67.3281L48.375 67.3281Q48.4141 68.3438 48.9766 68.9141Q49.5391 69.4844 50.5547 69.4844Q51.3438 69.4844 52.0469 69.3203Q52.75 69.1562 53.5156 68.7969L53.5156 70.6406Q52.8906 70.9531 52.1797 71.1055Q51.4688 71.2578 50.4453 71.2578ZM60.8047 62.2031Q62.3516 62.2031 63.2266 63.4102Q64.1016 64.6172 64.1016 66.7188Q64.1016 68.8828 63.1992 70.0703Q62.2969 71.2578 60.7422 71.2578Q59.2031 71.2578 58.3281 70.1406L58.1641 70.1406L57.7656 71.1016L55.9453 71.1016L55.9453 58.9453L58.3281 58.9453L58.3281 61.7734Q58.3281 62.3125 58.2344 63.5L58.3281 63.5Q59.1641 62.2031 60.8047 62.2031ZM60.0391 64.1094Q59.1562 64.1094 58.75 64.6523Q58.3438 65.1953 58.3281 66.4453L58.3281 66.7031Q58.3281 68.1094 58.7461 68.7188Q59.1641 69.3281 60.0703 69.3281Q60.8047 69.3281 61.2383 68.6523Q61.6719 67.9766 61.6719 66.6875Q61.6719 65.3984 61.2344 64.7539Q60.7969 64.1094 60.0391 64.1094ZM72.2578 71.1016L71.9375 69.9844L71.8125 69.9844Q71.4297 70.5938 70.7266 70.9258Q70.0234 71.2578 69.125 71.2578Q67.5859 71.2578 66.8047 70.4336Q66.0234 69.6094 66.0234 68.0625L66.0234 62.3672L68.4062 62.3672L68.4062 67.4688Q68.4062 68.4141 68.7422 68.8867Q69.0781 69.3594 69.8125 69.3594Q70.8125 69.3594 71.2578 68.6914Q71.7031 68.0234 71.7031 66.4766L71.7031 62.3672L74.0859 62.3672L74.0859 71.1016L72.2578 71.1016ZM78.9688 71.1016L76.5859 71.1016L76.5859 58.9453L78.9688 58.9453L78.9688 71.1016ZM87.0156 71.1016L86.5547 69.9141L86.4922 69.9141Q85.8906 70.6719 85.2539 70.9648Q84.6172 71.2578 83.5938 71.2578Q82.3359 71.2578 81.6133 70.5391Q80.8906 69.8203 80.8906 68.4922Q80.8906 67.1016 81.8633 66.4414Q82.8359 65.7812 84.7969 65.7109L86.3125 65.6641L86.3125 65.2812Q86.3125 63.9531 84.9531 63.9531Q83.9062 63.9531 82.4922 64.5859L81.7031 62.9766Q83.2109 62.1875 85.0469 62.1875Q86.8047 62.1875 87.7422 62.9531Q88.6797 63.7188 88.6797 65.2812L88.6797 71.1016L87.0156 71.1016ZM86.3125 67.0547L85.3906 67.0859Q84.3516 67.1172 83.8438 67.4609Q83.3359 67.8047 83.3359 68.5078Q83.3359 69.5156 84.4922 69.5156Q85.3203 69.5156 85.8164 69.0391Q86.3125 68.5625 86.3125 67.7734L86.3125 67.0547ZM41.4238 88.6152L40.1641 88.6152L35.5762 81.502L35.5293 81.502L35.5586 81.9766Q35.6289 83.043 35.6289 83.8281L35.6289 88.6152L34.6328 88.6152L34.6328 80.0488L35.8809 80.0488L36.1445 80.4648L38.957 84.8125L40.4512 87.1387L40.498 87.1387Q40.4863 86.998 40.4512 86.1338Q40.416 85.2695 40.416 84.8828L40.416 80.0488L41.4238 80.0488L41.4238 88.6152ZM49.1934 85.3867Q49.1934 86.9629 48.3965 87.8477Q47.5996 88.7324 46.1934 88.7324Q45.3203 88.7324 44.6465 88.3252Q43.9727 87.918 43.6094 87.1562Q43.2461 86.3945 43.2461 85.3867Q43.2461 83.8164 44.0312 82.9404Q44.8164 82.0645 46.2344 82.0645Q47.5938 82.0645 48.3936 82.958Q49.1934 83.8516 49.1934 85.3867ZM44.3359 85.3867Q44.3359 86.5996 44.8135 87.2295Q45.291 87.8594 46.2227 87.8594Q47.1426 87.8594 47.623 87.2295Q48.1035 86.5996 48.1035 85.3867Q48.1035 84.1738 47.6201 83.5615Q47.1367 82.9492 46.2051 82.9492Q44.3359 82.9492 44.3359 85.3867ZM52.2812 88.6152L49.8438 82.1816L50.9746 82.1816L52.3398 85.9727Q52.7441 87.1152 52.8555 87.6777L52.9023 87.6777Q52.9199 87.6016 52.9463 87.5049Q52.9727 87.4082 53.0078 87.2939Q53.043 87.1797 53.4414 85.9727L54.8125 82.1816L55.9375 82.1816L53.4941 88.6152L52.2812 88.6152ZM60.9297 88.6152L60.7246 87.7012L60.6777 87.7012Q60.1973 88.3047 59.7197 88.5186Q59.2422 88.7324 58.5156 88.7324Q57.5664 88.7324 57.0273 88.2344Q56.4883 87.7363 56.4883 86.8281Q56.4883 84.8711 59.5762 84.7773L60.666 84.7363L60.666 84.3555Q60.666 83.623 60.3496 83.2744Q60.0332 82.9258 59.3359 82.9258Q58.8262 82.9258 58.3721 83.0781Q57.918 83.2305 57.5195 83.418L57.1973 82.627Q57.6836 82.3691 58.2578 82.2227Q58.832 82.0762 59.3945 82.0762Q60.5605 82.0762 61.1289 82.5918Q61.6973 83.1074 61.6973 84.2324L61.6973 88.6152L60.9297 88.6152ZM58.7559 87.8828Q59.6406 87.8828 60.1475 87.4053Q60.6543 86.9277 60.6543 86.0488L60.6543 85.4688L59.7051 85.5098Q58.5977 85.5508 58.0908 85.8613Q57.584 86.1719 57.584 86.8398Q57.584 87.3438 57.8916 87.6133Q58.1992 87.8828 58.7559 87.8828ZM72.291 82.5684Q72.291 83.8809 71.3945 84.5811Q70.498 85.2812 68.8691 85.2812L67.8848 85.2812L67.8848 88.6152L66.8066 88.6152L66.8066 80.0488L69.0742 80.0488Q72.291 80.0488 72.291 82.5684ZM67.8848 84.3555L68.7461 84.3555Q70.0234 84.3555 70.5977 83.9424Q71.1719 83.5293 71.1719 82.6152Q71.1719 81.7891 70.6387 81.3789Q70.1055 80.9688 68.9746 80.9688L67.8848 80.9688L67.8848 84.3555ZM76.9199 82.0645Q77.3477 82.0645 77.6758 82.1348L77.5469 83.1074Q77.1895 83.0254 76.8496 83.0254Q76.3398 83.0254 75.9033 83.3066Q75.4668 83.5879 75.2207 84.083Q74.9746 84.5781 74.9746 85.1816L74.9746 88.6152L73.9199 88.6152L73.9199 82.1816L74.7871 82.1816L74.9043 83.3594L74.9512 83.3594Q75.3203 82.7207 75.8242 82.3926Q76.3281 82.0645 76.9199 82.0645ZM84.4668 85.3867Q84.4668 86.9629 83.6699 87.8477Q82.873 88.7324 81.4668 88.7324Q80.5938 88.7324 79.9199 88.3252Q79.2461 87.918 78.8828 87.1562Q78.5195 86.3945 78.5195 85.3867Q78.5195 83.8164 79.3047 82.9404Q80.0898 82.0645 81.5078 82.0645Q82.8672 82.0645 83.667 82.958Q84.4668 83.8516 84.4668 85.3867ZM79.6094 85.3867Q79.6094 86.5996 80.0869 87.2295Q80.5645 87.8594 81.4961 87.8594Q82.416 87.8594 82.8965 87.2295Q83.377 86.5996 83.377 85.3867Q83.377 84.1738 82.8936 83.5615Q82.4102 82.9492 81.4785 82.9492Q79.6094 82.9492 79.6094 85.3867Z">
</path>
<path     fill="#687586"  d="M100.68 71.1016L98.2656 71.1016L98.2656 66.1719L93.7422 66.1719L93.7422 71.1016L91.3203 71.1016L91.3203 59.6797L93.7422 59.6797L93.7422 64.1562L98.2656 64.1562L98.2656 59.6797L100.68 59.6797L100.68 71.1016ZM109.562 71.1016L109.242 69.9844L109.117 69.9844Q108.734 70.5938 108.031 70.9258Q107.328 71.2578 106.43 71.2578Q104.891 71.2578 104.109 70.4336Q103.328 69.6094 103.328 68.0625L103.328 62.3672L105.711 62.3672L105.711 67.4688Q105.711 68.4141 106.047 68.8867Q106.383 69.3594 107.117 69.3594Q108.117 69.3594 108.562 68.6914Q109.008 68.0234 109.008 66.4766L109.008 62.3672L111.391 62.3672L111.391 71.1016L109.562 71.1016ZM118.75 62.2031Q120.297 62.2031 121.172 63.4102Q122.047 64.6172 122.047 66.7188Q122.047 68.8828 121.145 70.0703Q120.242 71.2578 118.688 71.2578Q117.148 71.2578 116.273 70.1406L116.109 70.1406L115.711 71.1016L113.891 71.1016L113.891 58.9453L116.273 58.9453L116.273 61.7734Q116.273 62.3125 116.18 63.5L116.273 63.5Q117.109 62.2031 118.75 62.2031ZM117.984 64.1094Q117.102 64.1094 116.695 64.6523Q116.289 65.1953 116.273 66.4453L116.273 66.7031Q116.273 68.1094 116.691 68.7188Q117.109 69.3281 118.016 69.3281Q118.75 69.3281 119.184 68.6523Q119.617 67.9766 119.617 66.6875Q119.617 65.3984 119.18 64.7539Q118.742 64.1094 117.984 64.1094Z">
</path>
<path     fill="#808080"  d="M90.8945 78.6367L91.7559 78.6367L91.7559 90.6016L90.8945 90.6016L90.8945 78.6367ZM90.1562 81.1504ZM90.127 77.8574ZM90.8945 91.8262Z">
</path>
<path     fill="#E74F10"  d="M103.869 84.3312L106.641 84.3312L106.641 85.1232L103.869 85.1232L103.869 84.3312ZM106.509 78.4512L105.345 78.7032C105.657 79.8792 106.005 80.7912 106.389 81.5232L104.265 81.5232C104.649 80.8032 104.949 79.9752 105.141 79.0392L104.325 78.7632L104.097 78.8112L102.081 78.8112L102.081 80.0232L103.581 80.0232C103.473 80.2992 103.353 80.5752 103.209 80.8392L102.381 80.2752L101.673 81.1272L101.673 80.6592L100.653 80.6592L100.653 78.4152L99.3812 78.4152L99.3812 80.6592L98.0252 80.6592L98.0252 81.9912L99.3332 81.9912C99.0332 83.4432 98.4212 85.1352 97.7612 86.0712C97.9772 86.4192 98.2652 87.0312 98.3972 87.4152C98.7572 86.8392 99.0932 86.0352 99.3812 85.1232L99.3812 89.6832L100.653 89.6832L100.653 84.3552C100.905 84.8832 101.133 85.4232 101.265 85.7952L102.081 84.7512C101.877 84.3912 101.001 82.9752 100.653 82.4952L100.653 81.9912L101.673 81.9912L101.673 81.1512C101.937 81.3432 102.261 81.5712 102.549 81.7992C102.153 82.2552 101.709 82.6392 101.217 82.8912C101.493 83.1432 101.841 83.6232 101.997 83.9352C102.201 83.8152 102.393 83.6832 102.573 83.5392L102.573 86.2392L106.233 86.2392C106.065 86.8152 105.777 87.5592 105.525 88.0992L103.905 88.0992L104.721 87.8592C104.661 87.4032 104.421 86.7312 104.145 86.2512L102.909 86.5992C103.137 87.0672 103.317 87.6672 103.389 88.0992L101.481 88.0992L101.481 89.3112L109.113 89.3112L109.113 88.0992L106.953 88.0992C107.205 87.6432 107.481 87.1032 107.745 86.5632L106.593 86.2392L108.009 86.2392L108.009 83.5752L108.477 83.9472C108.669 83.5512 109.041 83.1192 109.389 82.8552C108.921 82.5552 108.513 82.2192 108.129 81.7992L109.233 81.1872L108.309 80.2152C108.105 80.4192 107.805 80.6832 107.505 80.9232L107.241 80.4312L108.369 79.7112L107.469 78.7752C107.301 78.9552 107.061 79.1712 106.809 79.3872C106.701 79.0992 106.605 78.7872 106.509 78.4512ZM103.833 82.2192L103.833 82.6992L106.653 82.6992L106.653 81.9912C106.941 82.4592 107.253 82.8552 107.601 83.2032L102.981 83.2032C103.293 82.9152 103.581 82.5792 103.833 82.2192ZM110.985 79.4232C111.513 80.3712 112.053 81.6192 112.233 82.3992L113.637 81.8352C113.433 81.0312 112.833 79.8432 112.293 78.9312L110.985 79.4232ZM118.761 78.8472C118.449 79.8072 117.873 81.0552 117.381 81.8592L118.629 82.3392C119.145 81.5952 119.757 80.4312 120.285 79.3632L118.761 78.8472ZM114.753 78.4152L114.753 82.8192L110.121 82.8192L110.121 84.1752L113.061 84.1752C112.893 86.1552 112.581 87.6192 109.809 88.4472C110.133 88.7352 110.529 89.3232 110.685 89.7072C113.853 88.6392 114.393 86.7072 114.609 84.1752L116.313 84.1752L116.313 87.8112C116.313 89.2032 116.661 89.6472 118.017 89.6472C118.269 89.6472 119.181 89.6472 119.457 89.6472C120.645 89.6472 121.017 89.0832 121.161 86.9832C120.777 86.8872 120.153 86.6352 119.841 86.3952C119.793 88.0392 119.721 88.3032 119.325 88.3032C119.109 88.3032 118.401 88.3032 118.221 88.3032C117.837 88.3032 117.765 88.2312 117.765 87.7992L117.765 84.1752L120.969 84.1752L120.969 82.8192L116.217 82.8192L116.217 78.4152L114.753 78.4152Z">
</path>
</g>
<path fill-rule="evenodd"  fill="rgba(255, 255, 255, 1)"  d="M0 3L0 97C0 98.6569 1.34315 100 3 100L147 100C148.657 100 150 98.6569 150 97L150 3C150 1.34315 148.657 0 147 0L3 0C1.34315 0 0 1.34315 0 3ZM3 99C1.89543 99 1 98.1046 1 97L1 3C1 1.89543 1.89543 1 3 1L147 1C148.105 1 149 1.89543 149 3L149 97C149 98.1046 148.105 99 147 99L3 99Z">
</path>
<defs>
<linearGradient id="linear_fill_1_1_0" x1="61.529296875" y1="23.4031982421875" x2="53.859375" y2="65" gradientUnits="userSpaceOnUse">
<stop offset="0" stop-color="#002BC8"  />
<stop offset="1" stop-color="#FBFBF6"  />
</linearGradient>
<filter id="filter_1_1" x="41.5" y="2.981475830078125" width="51.33331298828125" height="58.03704833984375" filterUnits="userSpaceOnUse" color-interpolation-filters="sRGB">
<feFlood flood-opacity="0" result="feFloodId_1_1"/>
<feColorMatrix in="SourceAlpha" type="matrix" values="0 0 0 0 0 0 0 0 0 0 0 0 0 0 0 0 0 0 127 0" result="hardAlpha_1_1"/>
<feOffset dx="0" dy="2"/>
<feGaussianBlur stdDeviation="2"/>
<feComposite in2="hardAlpha_1_1" operator="out"/>
<feColorMatrix type="matrix" values="0 0 0 0 0 0 0 0 0 0 0 0 0 0 0 0 0 0 0.25 0"/>
<feBlend mode="normal" in2="feFloodId_1_1" result="dropShadow_1_1_1"/>
<feBlend mode="normal" in="SourceGraphic" in2="dropShadow_1_1_1" result="shape_1_1"/>
</filter>
<linearGradient id="linear_fill_1_2_0" x1="91.89337158203125" y1="22.841796875" x2="102.331787109375" y2="1.012298583984375" gradientUnits="userSpaceOnUse">
<stop offset="0" stop-color="#25B8E1"  />
<stop offset="1" stop-color="#8AD2F3" stop-opacity="0" />
</linearGradient>
<filter id="filter_1_2" x="58.16668701171875" y="2.981475830078125" width="51.33331298828125" height="58.03704833984375" filterUnits="userSpaceOnUse" color-interpolation-filters="sRGB">
<feFlood flood-opacity="0" result="feFloodId_1_2"/>
<feColorMatrix in="SourceAlpha" type="matrix" values="0 0 0 0 0 0 0 0 0 0 0 0 0 0 0 0 0 0 127 0" result="hardAlpha_1_2"/>
<feOffset dx="0" dy="2"/>
<feGaussianBlur stdDeviation="2"/>
<feComposite in2="hardAlpha_1_2" operator="out"/>
<feColorMatrix type="matrix" values="0 0 0 0 0 0 0 0 0 0 0 0 0 0 0 0 0 0 0.25 0"/>
<feBlend mode="normal" in2="feFloodId_1_2" result="dropShadow_1_1_2"/>
<feBlend mode="normal" in="SourceGraphic" in2="dropShadow_1_1_2" result="shape_1_2"/>
</filter>
</defs>
</svg>
