<svg xmlns="http://www.w3.org/2000/svg" xmlns:xlink="http://www.w3.org/1999/xlink" width="192" height="70" viewBox="0 0 192 70" fill="none">
<rect x="0" y="0" width="0" height="0" fill="rgba(249, 249, 249, 1)" />
<path     fill="#FFFFFF"  d="M0 67L0 3C0 1.34315 1.34315 0 3 0L189 0C190.657 0 192 1.34315 192 3L192 67C192 68.6569 190.657 70 189 70L3 70C1.34315 70 0 68.6569 0 67Z">
</path>
<g style="mix-blend-mode:darken" opacity="0.8">
<g filter="url(#filter_1_7)">
<path     fill="url(#linear_fill_1_7_0)"  d="M41.5 25.4737L61 14.2154C68.3333 9.98149 77.5 15.2739 77.5 23.7417L77.5 46.2583C77.5 54.7261 68.3333 60.0185 61 55.7846L41.5 44.5263C34.1667 40.2924 34.1667 29.7076 41.5 25.4737Z">
</path>
</g>
</g>
<g style="mix-blend-mode:darken" opacity="0.8">
<g filter="url(#filter_1_6)">
<path     fill="url(#linear_fill_1_6_0)" fill-opacity="0.9" d="M53.5 44.5263L34 55.7846C26.6667 60.0185 17.5 54.7261 17.5 46.2583L17.5 23.7417C17.5 15.2739 26.6667 9.98149 34 14.2154L53.5 25.4737C60.8333 29.7076 60.8333 40.2924 53.5 44.5263Z">
</path>
</g>
</g>
<g >
<path     fill="#000000"  d="M96.8047 33.1016L93.7266 33.1016L88.7578 24.4609L88.6875 24.4609Q88.8359 26.75 88.8359 27.7266L88.8359 33.1016L86.6719 33.1016L86.6719 21.6797L89.7266 21.6797L94.6875 30.2344L94.7422 30.2344Q94.625 28.0078 94.625 27.0859L94.625 21.6797L96.8047 21.6797L96.8047 33.1016ZM103.109 25.8984Q102.352 25.8984 101.922 26.3789Q101.492 26.8594 101.43 27.7422L104.773 27.7422Q104.758 26.8594 104.312 26.3789Q103.867 25.8984 103.109 25.8984ZM103.445 33.2578Q101.336 33.2578 100.148 32.0938Q98.9609 30.9297 98.9609 28.7969Q98.9609 26.6016 100.059 25.4023Q101.156 24.2031 103.094 24.2031Q104.945 24.2031 105.977 25.2578Q107.008 26.3125 107.008 28.1719L107.008 29.3281L101.375 29.3281Q101.414 30.3438 101.977 30.9141Q102.539 31.4844 103.555 31.4844Q104.344 31.4844 105.047 31.3203Q105.75 31.1562 106.516 30.7969L106.516 32.6406Q105.891 32.9531 105.18 33.1055Q104.469 33.2578 103.445 33.2578ZM113.805 24.2031Q115.352 24.2031 116.227 25.4102Q117.102 26.6172 117.102 28.7188Q117.102 30.8828 116.199 32.0703Q115.297 33.2578 113.742 33.2578Q112.203 33.2578 111.328 32.1406L111.164 32.1406L110.766 33.1016L108.945 33.1016L108.945 20.9453L111.328 20.9453L111.328 23.7734Q111.328 24.3125 111.234 25.5L111.328 25.5Q112.164 24.2031 113.805 24.2031ZM113.039 26.1094Q112.156 26.1094 111.75 26.6523Q111.344 27.1953 111.328 28.4453L111.328 28.7031Q111.328 30.1094 111.746 30.7188Q112.164 31.3281 113.07 31.3281Q113.805 31.3281 114.238 30.6523Q114.672 29.9766 114.672 28.6875Q114.672 27.3984 114.234 26.7539Q113.797 26.1094 113.039 26.1094ZM125.258 33.1016L124.938 31.9844L124.812 31.9844Q124.43 32.5938 123.727 32.9258Q123.023 33.2578 122.125 33.2578Q120.586 33.2578 119.805 32.4336Q119.023 31.6094 119.023 30.0625L119.023 24.3672L121.406 24.3672L121.406 29.4688Q121.406 30.4141 121.742 30.8867Q122.078 31.3594 122.812 31.3594Q123.812 31.3594 124.258 30.6914Q124.703 30.0234 124.703 28.4766L124.703 24.3672L127.086 24.3672L127.086 33.1016L125.258 33.1016ZM131.969 33.1016L129.586 33.1016L129.586 20.9453L131.969 20.9453L131.969 33.1016ZM140.016 33.1016L139.555 31.9141L139.492 31.9141Q138.891 32.6719 138.254 32.9648Q137.617 33.2578 136.594 33.2578Q135.336 33.2578 134.613 32.5391Q133.891 31.8203 133.891 30.4922Q133.891 29.1016 134.863 28.4414Q135.836 27.7812 137.797 27.7109L139.312 27.6641L139.312 27.2812Q139.312 25.9531 137.953 25.9531Q136.906 25.9531 135.492 26.5859L134.703 24.9766Q136.211 24.1875 138.047 24.1875Q139.805 24.1875 140.742 24.9531Q141.68 25.7188 141.68 27.2812L141.68 33.1016L140.016 33.1016ZM139.312 29.0547L138.391 29.0859Q137.352 29.1172 136.844 29.4609Q136.336 29.8047 136.336 30.5078Q136.336 31.5156 137.492 31.5156Q138.32 31.5156 138.816 31.0391Q139.312 30.5625 139.312 29.7734L139.312 29.0547ZM94.4238 50.6152L93.1641 50.6152L88.5762 43.502L88.5293 43.502L88.5586 43.9766Q88.6289 45.043 88.6289 45.8281L88.6289 50.6152L87.6328 50.6152L87.6328 42.0488L88.8809 42.0488L89.1445 42.4648L91.957 46.8125L93.4512 49.1387L93.498 49.1387Q93.4863 48.998 93.4512 48.1338Q93.416 47.2695 93.416 46.8828L93.416 42.0488L94.4238 42.0488L94.4238 50.6152ZM102.193 47.3867Q102.193 48.9629 101.396 49.8477Q100.6 50.7324 99.1934 50.7324Q98.3203 50.7324 97.6465 50.3252Q96.9727 49.918 96.6094 49.1562Q96.2461 48.3945 96.2461 47.3867Q96.2461 45.8164 97.0312 44.9404Q97.8164 44.0645 99.2344 44.0645Q100.594 44.0645 101.394 44.958Q102.193 45.8516 102.193 47.3867ZM97.3359 47.3867Q97.3359 48.5996 97.8135 49.2295Q98.291 49.8594 99.2227 49.8594Q100.143 49.8594 100.623 49.2295Q101.104 48.5996 101.104 47.3867Q101.104 46.1738 100.62 45.5615Q100.137 44.9492 99.2051 44.9492Q97.3359 44.9492 97.3359 47.3867ZM105.281 50.6152L102.844 44.1816L103.975 44.1816L105.34 47.9727Q105.744 49.1152 105.855 49.6777L105.902 49.6777Q105.92 49.6016 105.946 49.5049Q105.973 49.4082 106.008 49.2939Q106.043 49.1797 106.441 47.9727L107.812 44.1816L108.938 44.1816L106.494 50.6152L105.281 50.6152ZM113.93 50.6152L113.725 49.7012L113.678 49.7012Q113.197 50.3047 112.72 50.5186Q112.242 50.7324 111.516 50.7324Q110.566 50.7324 110.027 50.2344Q109.488 49.7363 109.488 48.8281Q109.488 46.8711 112.576 46.7773L113.666 46.7363L113.666 46.3555Q113.666 45.623 113.35 45.2744Q113.033 44.9258 112.336 44.9258Q111.826 44.9258 111.372 45.0781Q110.918 45.2305 110.52 45.418L110.197 44.627Q110.684 44.3691 111.258 44.2227Q111.832 44.0762 112.395 44.0762Q113.561 44.0762 114.129 44.5918Q114.697 45.1074 114.697 46.2324L114.697 50.6152L113.93 50.6152ZM111.756 49.8828Q112.641 49.8828 113.147 49.4053Q113.654 48.9277 113.654 48.0488L113.654 47.4688L112.705 47.5098Q111.598 47.5508 111.091 47.8613Q110.584 48.1719 110.584 48.8398Q110.584 49.3438 110.892 49.6133Q111.199 49.8828 111.756 49.8828ZM125.291 44.5684Q125.291 45.8809 124.395 46.5811Q123.498 47.2812 121.869 47.2812L120.885 47.2812L120.885 50.6152L119.807 50.6152L119.807 42.0488L122.074 42.0488Q125.291 42.0488 125.291 44.5684ZM120.885 46.3555L121.746 46.3555Q123.023 46.3555 123.598 45.9424Q124.172 45.5293 124.172 44.6152Q124.172 43.7891 123.639 43.3789Q123.105 42.9688 121.975 42.9688L120.885 42.9688L120.885 46.3555ZM129.92 44.0645Q130.348 44.0645 130.676 44.1348L130.547 45.1074Q130.189 45.0254 129.85 45.0254Q129.34 45.0254 128.903 45.3066Q128.467 45.5879 128.221 46.083Q127.975 46.5781 127.975 47.1816L127.975 50.6152L126.92 50.6152L126.92 44.1816L127.787 44.1816L127.904 45.3594L127.951 45.3594Q128.32 44.7207 128.824 44.3926Q129.328 44.0645 129.92 44.0645ZM137.467 47.3867Q137.467 48.9629 136.67 49.8477Q135.873 50.7324 134.467 50.7324Q133.594 50.7324 132.92 50.3252Q132.246 49.918 131.883 49.1562Q131.52 48.3945 131.52 47.3867Q131.52 45.8164 132.305 44.9404Q133.09 44.0645 134.508 44.0645Q135.867 44.0645 136.667 44.958Q137.467 45.8516 137.467 47.3867ZM132.609 47.3867Q132.609 48.5996 133.087 49.2295Q133.564 49.8594 134.496 49.8594Q135.416 49.8594 135.896 49.2295Q136.377 48.5996 136.377 47.3867Q136.377 46.1738 135.894 45.5615Q135.41 44.9492 134.479 44.9492Q132.609 44.9492 132.609 47.3867Z">
</path>
<path     fill="#687586"  d="M153.68 33.1016L151.266 33.1016L151.266 28.1719L146.742 28.1719L146.742 33.1016L144.32 33.1016L144.32 21.6797L146.742 21.6797L146.742 26.1562L151.266 26.1562L151.266 21.6797L153.68 21.6797L153.68 33.1016ZM162.562 33.1016L162.242 31.9844L162.117 31.9844Q161.734 32.5938 161.031 32.9258Q160.328 33.2578 159.43 33.2578Q157.891 33.2578 157.109 32.4336Q156.328 31.6094 156.328 30.0625L156.328 24.3672L158.711 24.3672L158.711 29.4688Q158.711 30.4141 159.047 30.8867Q159.383 31.3594 160.117 31.3594Q161.117 31.3594 161.562 30.6914Q162.008 30.0234 162.008 28.4766L162.008 24.3672L164.391 24.3672L164.391 33.1016L162.562 33.1016ZM171.75 24.2031Q173.297 24.2031 174.172 25.4102Q175.047 26.6172 175.047 28.7188Q175.047 30.8828 174.145 32.0703Q173.242 33.2578 171.688 33.2578Q170.148 33.2578 169.273 32.1406L169.109 32.1406L168.711 33.1016L166.891 33.1016L166.891 20.9453L169.273 20.9453L169.273 23.7734Q169.273 24.3125 169.18 25.5L169.273 25.5Q170.109 24.2031 171.75 24.2031ZM170.984 26.1094Q170.102 26.1094 169.695 26.6523Q169.289 27.1953 169.273 28.4453L169.273 28.7031Q169.273 30.1094 169.691 30.7188Q170.109 31.3281 171.016 31.3281Q171.75 31.3281 172.184 30.6523Q172.617 29.9766 172.617 28.6875Q172.617 27.3984 172.18 26.7539Q171.742 26.1094 170.984 26.1094Z">
</path>
<path     fill="#808080"  d="M143.895 40.6367L144.756 40.6367L144.756 52.6016L143.895 52.6016L143.895 40.6367ZM143.156 43.1504ZM143.127 39.8574ZM143.895 53.8262Z">
</path>
<path     fill="#E74F10"  d="M156.869 46.3312L159.641 46.3312L159.641 47.1232L156.869 47.1232L156.869 46.3312ZM159.509 40.4512L158.345 40.7032C158.657 41.8792 159.005 42.7912 159.389 43.5232L157.265 43.5232C157.649 42.8032 157.949 41.9752 158.141 41.0392L157.325 40.7632L157.097 40.8112L155.081 40.8112L155.081 42.0232L156.581 42.0232C156.473 42.2992 156.353 42.5752 156.209 42.8392L155.381 42.2752L154.673 43.1272L154.673 42.6592L153.653 42.6592L153.653 40.4152L152.381 40.4152L152.381 42.6592L151.025 42.6592L151.025 43.9912L152.333 43.9912C152.033 45.4432 151.421 47.1352 150.761 48.0712C150.977 48.4192 151.265 49.0312 151.397 49.4152C151.757 48.8392 152.093 48.0352 152.381 47.1232L152.381 51.6832L153.653 51.6832L153.653 46.3552C153.905 46.8832 154.133 47.4232 154.265 47.7952L155.081 46.7512C154.877 46.3912 154.001 44.9752 153.653 44.4952L153.653 43.9912L154.673 43.9912L154.673 43.1512C154.937 43.3432 155.261 43.5712 155.549 43.7992C155.153 44.2552 154.709 44.6392 154.217 44.8912C154.493 45.1432 154.841 45.6232 154.997 45.9352C155.201 45.8152 155.393 45.6832 155.573 45.5392L155.573 48.2392L159.233 48.2392C159.065 48.8152 158.777 49.5592 158.525 50.0992L156.905 50.0992L157.721 49.8592C157.661 49.4032 157.421 48.7312 157.145 48.2512L155.909 48.5992C156.137 49.0672 156.317 49.6672 156.389 50.0992L154.481 50.0992L154.481 51.3112L162.113 51.3112L162.113 50.0992L159.953 50.0992C160.205 49.6432 160.481 49.1032 160.745 48.5632L159.593 48.2392L161.009 48.2392L161.009 45.5752L161.477 45.9472C161.669 45.5512 162.041 45.1192 162.389 44.8552C161.921 44.5552 161.513 44.2192 161.129 43.7992L162.233 43.1872L161.309 42.2152C161.105 42.4192 160.805 42.6832 160.505 42.9232L160.241 42.4312L161.369 41.7112L160.469 40.7752C160.301 40.9552 160.061 41.1712 159.809 41.3872C159.701 41.0992 159.605 40.7872 159.509 40.4512ZM156.833 44.2192L156.833 44.6992L159.653 44.6992L159.653 43.9912C159.941 44.4592 160.253 44.8552 160.601 45.2032L155.981 45.2032C156.293 44.9152 156.581 44.5792 156.833 44.2192ZM163.985 41.4232C164.513 42.3712 165.053 43.6192 165.233 44.3992L166.637 43.8352C166.433 43.0312 165.833 41.8432 165.293 40.9312L163.985 41.4232ZM171.761 40.8472C171.449 41.8072 170.873 43.0552 170.381 43.8592L171.629 44.3392C172.145 43.5952 172.757 42.4312 173.285 41.3632L171.761 40.8472ZM167.753 40.4152L167.753 44.8192L163.121 44.8192L163.121 46.1752L166.061 46.1752C165.893 48.1552 165.581 49.6192 162.809 50.4472C163.133 50.7352 163.529 51.3232 163.685 51.7072C166.853 50.6392 167.393 48.7072 167.609 46.1752L169.313 46.1752L169.313 49.8112C169.313 51.2032 169.661 51.6472 171.017 51.6472C171.269 51.6472 172.181 51.6472 172.457 51.6472C173.645 51.6472 174.017 51.0832 174.161 48.9832C173.777 48.8872 173.153 48.6352 172.841 48.3952C172.793 50.0392 172.721 50.3032 172.325 50.3032C172.109 50.3032 171.401 50.3032 171.221 50.3032C170.837 50.3032 170.765 50.2312 170.765 49.7992L170.765 46.1752L173.969 46.1752L173.969 44.8192L169.217 44.8192L169.217 40.4152L167.753 40.4152Z">
</path>
</g>
<path fill-rule="evenodd"  fill="rgba(255, 255, 255, 1)"  d="M0 3L0 67C0 68.6569 1.34315 70 3 70L189 70C190.657 70 192 68.6569 192 67L192 3C192 1.34315 190.657 0 189 0L3 0C1.34315 0 0 1.34315 0 3ZM3 69C1.89543 69 1 68.1046 1 67L1 3C1 1.89543 1.89543 1 3 1L189 1C190.105 1 191 1.89543 191 3L191 67C191 68.1046 190.105 69 189 69L3 69Z">
</path>
<defs>
<linearGradient id="linear_fill_1_7_0" x1="63.89337158203125" y1="27.841796875" x2="74.331787109375" y2="6.012298583984375" gradientUnits="userSpaceOnUse">
<stop offset="0" stop-color="#25B8E1"  />
<stop offset="1" stop-color="#8AD2F3" stop-opacity="0" />
</linearGradient>
<filter id="filter_1_7" x="30.16668701171875" y="7.981475830078125" width="51.33331298828125" height="58.03704833984375" filterUnits="userSpaceOnUse" color-interpolation-filters="sRGB">
<feFlood flood-opacity="0" result="feFloodId_1_7"/>
<feColorMatrix in="SourceAlpha" type="matrix" values="0 0 0 0 0 0 0 0 0 0 0 0 0 0 0 0 0 0 127 0" result="hardAlpha_1_7"/>
<feOffset dx="0" dy="2"/>
<feGaussianBlur stdDeviation="2"/>
<feComposite in2="hardAlpha_1_7" operator="out"/>
<feColorMatrix type="matrix" values="0 0 0 0 0 0 0 0 0 0 0 0 0 0 0 0 0 0 0.25 0"/>
<feBlend mode="normal" in2="feFloodId_1_7" result="dropShadow_1_1_7"/>
<feBlend mode="normal" in="SourceGraphic" in2="dropShadow_1_1_7" result="shape_1_7"/>
</filter>
<linearGradient id="linear_fill_1_6_0" x1="33.529296875" y1="28.4031982421875" x2="25.859375" y2="70" gradientUnits="userSpaceOnUse">
<stop offset="0" stop-color="#002BC8"  />
<stop offset="1" stop-color="#FBFBF6"  />
</linearGradient>
<filter id="filter_1_6" x="13.5" y="7.981475830078125" width="51.33331298828125" height="58.03704833984375" filterUnits="userSpaceOnUse" color-interpolation-filters="sRGB">
<feFlood flood-opacity="0" result="feFloodId_1_6"/>
<feColorMatrix in="SourceAlpha" type="matrix" values="0 0 0 0 0 0 0 0 0 0 0 0 0 0 0 0 0 0 127 0" result="hardAlpha_1_6"/>
<feOffset dx="0" dy="2"/>
<feGaussianBlur stdDeviation="2"/>
<feComposite in2="hardAlpha_1_6" operator="out"/>
<feColorMatrix type="matrix" values="0 0 0 0 0 0 0 0 0 0 0 0 0 0 0 0 0 0 0.25 0"/>
<feBlend mode="normal" in2="feFloodId_1_6" result="dropShadow_1_1_6"/>
<feBlend mode="normal" in="SourceGraphic" in2="dropShadow_1_1_6" result="shape_1_6"/>
</filter>
</defs>
</svg>
