<svg xmlns="http://www.w3.org/2000/svg" xmlns:xlink="http://www.w3.org/1999/xlink" width="106" height="85" viewBox="0 0 106 85" fill="none"><g style="mix-blend-mode:darken" opacity="0.8"><g filter="url(#filter_3_2)"><path     fill="url(#linear_fill_3_2_0)"  d="M44.4082 24.6487L59.0446 14.3111C65.0061 10.1005 73.2368 14.3638 73.2368 21.6624L73.2368 42.3377C73.2368 49.6362 65.0061 53.8995 59.0446 49.6889L44.4082 39.3513C39.3311 35.7654 39.3311 28.2347 44.4082 24.6487Z"></path></g></g><g style="mix-blend-mode:darken" opacity="0.8"><g filter="url(#filter_3_3)"><path     fill="url(#linear_fill_3_3_0)" fill-opacity="0.9" d="M56.5918 39.3513L41.9554 49.6889C35.9939 53.8995 27.7632 49.6362 27.7632 42.3376L27.7632 21.6623C27.7632 14.3638 35.9939 10.1005 41.9554 14.3111L56.5918 24.6487C61.6689 28.2347 61.6689 35.7653 56.5918 39.3513Z"></path></g></g><g ><path     fill="#000000"  d="M27.7285 64.5271L25.4199 64.5271L21.6934 58.0466L21.6406 58.0466Q21.752 59.7634 21.752 60.4958L21.752 64.5271L20.1289 64.5271L20.1289 55.9607L22.4199 55.9607L26.1406 62.3767L26.1816 62.3767Q26.0938 60.7068 26.0938 60.0154L26.0938 55.9607L27.7285 55.9607L27.7285 64.5271ZM32.457 59.1248Q31.8887 59.1248 31.5664 59.4851Q31.2441 59.8455 31.1973 60.5076L33.7051 60.5076Q33.6934 59.8455 33.3594 59.4851Q33.0254 59.1248 32.457 59.1248ZM32.709 64.6443Q31.127 64.6443 30.2363 63.7712Q29.3457 62.8982 29.3457 61.2986Q29.3457 59.6521 30.1689 58.7527Q30.9922 57.8533 32.4453 57.8533Q33.834 57.8533 34.6074 58.6443Q35.3809 59.4353 35.3809 60.8298L35.3809 61.697L31.1562 61.697Q31.1855 62.4587 31.6074 62.8865Q32.0293 63.3142 32.791 63.3142Q33.3828 63.3142 33.9102 63.1912Q34.4375 63.0681 35.0117 62.7986L35.0117 64.1814Q34.543 64.4158 34.0098 64.53Q33.4766 64.6443 32.709 64.6443ZM40.4785 57.8533Q41.6387 57.8533 42.2949 58.7585Q42.9512 59.6638 42.9512 61.24Q42.9512 62.863 42.2744 63.7537Q41.5977 64.6443 40.4316 64.6443Q39.2773 64.6443 38.6211 63.8064L38.498 63.8064L38.1992 64.5271L36.834 64.5271L36.834 55.4099L38.6211 55.4099L38.6211 57.531Q38.6211 57.9353 38.5508 58.8259L38.6211 58.8259Q39.248 57.8533 40.4785 57.8533ZM39.9043 59.283Q39.2422 59.283 38.9375 59.6902Q38.6328 60.0974 38.6211 61.0349L38.6211 61.2283Q38.6211 62.283 38.9346 62.74Q39.248 63.197 39.9277 63.197Q40.4785 63.197 40.8037 62.6902Q41.1289 62.1833 41.1289 61.2166Q41.1289 60.2498 40.8008 59.7664Q40.4727 59.283 39.9043 59.283ZM49.0684 64.5271L48.8281 63.6892L48.7344 63.6892Q48.4473 64.1462 47.9199 64.3953Q47.3926 64.6443 46.7188 64.6443Q45.5645 64.6443 44.9785 64.0261Q44.3926 63.408 44.3926 62.2478L44.3926 57.9763L46.1797 57.9763L46.1797 61.8025Q46.1797 62.5115 46.4316 62.866Q46.6836 63.2205 47.2344 63.2205Q47.9844 63.2205 48.3184 62.7195Q48.6523 62.2185 48.6523 61.0583L48.6523 57.9763L50.4395 57.9763L50.4395 64.5271L49.0684 64.5271ZM54.1016 64.5271L52.3145 64.5271L52.3145 55.4099L54.1016 55.4099L54.1016 64.5271ZM60.1367 64.5271L59.791 63.6365L59.7441 63.6365Q59.293 64.2048 58.8154 64.4246Q58.3379 64.6443 57.5703 64.6443Q56.627 64.6443 56.085 64.1052Q55.543 63.5662 55.543 62.5701Q55.543 61.5271 56.2725 61.032Q57.002 60.5369 58.4727 60.4841L59.6094 60.449L59.6094 60.1619Q59.6094 59.1658 58.5898 59.1658Q57.8047 59.1658 56.7441 59.6404L56.1523 58.4333Q57.2832 57.8416 58.6602 57.8416Q59.9785 57.8416 60.6816 58.4158Q61.3848 58.99 61.3848 60.1619L61.3848 64.5271L60.1367 64.5271ZM59.6094 61.4919L58.918 61.5154Q58.1387 61.5388 57.7578 61.7966Q57.377 62.0544 57.377 62.5818Q57.377 63.3376 58.2441 63.3376Q58.8652 63.3376 59.2373 62.9802Q59.6094 62.6228 59.6094 62.031L59.6094 61.4919ZM25.9429 77.6624L24.998 77.6624L21.5571 72.3274L21.522 72.3274L21.5439 72.6833Q21.5967 73.4832 21.5967 74.072L21.5967 77.6624L20.8496 77.6624L20.8496 71.2375L21.7856 71.2375L21.9834 71.5496L24.0928 74.8103L25.2134 76.5549L25.2485 76.5549Q25.2397 76.4495 25.2134 75.8013Q25.187 75.1531 25.187 74.863L25.187 71.2375L25.9429 71.2375L25.9429 77.6624ZM31.77 75.241Q31.77 76.4231 31.1724 77.0867Q30.5747 77.7502 29.52 77.7502Q28.8652 77.7502 28.3599 77.4448Q27.8545 77.1394 27.582 76.5681Q27.3096 75.9968 27.3096 75.241Q27.3096 74.0632 27.8984 73.4062Q28.4873 72.7493 29.5508 72.7493Q30.5703 72.7493 31.1702 73.4194Q31.77 74.0896 31.77 75.241ZM28.127 75.241Q28.127 76.1506 28.4851 76.623Q28.8433 77.0955 29.542 77.0955Q30.2319 77.0955 30.5923 76.623Q30.9526 76.1506 30.9526 75.241Q30.9526 74.3313 30.5901 73.8721Q30.2275 73.4128 29.5288 73.4128Q28.127 73.4128 28.127 75.241ZM34.0859 77.6624L32.2578 72.8372L33.106 72.8372L34.1299 75.6804Q34.4331 76.5374 34.5166 76.9592L34.5518 76.9592Q34.5649 76.9021 34.5847 76.8296Q34.6045 76.7571 34.6309 76.6714Q34.6572 76.5857 34.9561 75.6804L35.9844 72.8372L36.8281 72.8372L34.9956 77.6624L34.0859 77.6624ZM40.5723 77.6624L40.4185 76.9768L40.3833 76.9768Q40.0229 77.4294 39.6648 77.5898Q39.3066 77.7502 38.7617 77.7502Q38.0498 77.7502 37.6455 77.3767Q37.2412 77.0032 37.2412 76.322Q37.2412 74.8542 39.5571 74.7839L40.3745 74.7532L40.3745 74.4675Q40.3745 73.9182 40.1372 73.6567Q39.8999 73.3953 39.377 73.3953Q38.9946 73.3953 38.6541 73.5095Q38.3135 73.6238 38.0146 73.7644L37.7729 73.1711Q38.1377 72.9778 38.5684 72.8679Q38.999 72.7581 39.4209 72.7581Q40.2954 72.7581 40.7217 73.1448Q41.1479 73.5315 41.1479 74.3752L41.1479 77.6624L40.5723 77.6624ZM38.9419 77.113Q39.6055 77.113 39.9856 76.7549Q40.3657 76.3967 40.3657 75.7375L40.3657 75.3025L39.6538 75.3333Q38.8232 75.364 38.4431 75.5969Q38.063 75.8298 38.063 76.3308Q38.063 76.7087 38.2937 76.9109Q38.5244 77.113 38.9419 77.113ZM49.0933 73.1272Q49.0933 74.1116 48.4209 74.6367Q47.7485 75.1619 46.5269 75.1619L45.7886 75.1619L45.7886 77.6624L44.98 77.6624L44.98 71.2375L46.6807 71.2375Q49.0933 71.2375 49.0933 73.1272ZM45.7886 74.4675L46.4346 74.4675Q47.3926 74.4675 47.8232 74.1577Q48.2539 73.8479 48.2539 73.1624Q48.2539 72.5427 47.854 72.2351Q47.4541 71.9275 46.606 71.9275L45.7886 71.9275L45.7886 74.4675ZM52.5649 72.7493Q52.8857 72.7493 53.1318 72.802L53.0352 73.5315Q52.7671 73.47 52.5122 73.47Q52.1299 73.47 51.8025 73.6809Q51.4751 73.8918 51.2905 74.2632Q51.106 74.6345 51.106 75.0872L51.106 77.6624L50.3149 77.6624L50.3149 72.8372L50.9653 72.8372L51.0532 73.7205L51.0884 73.7205Q51.3652 73.2415 51.7432 72.9954Q52.1211 72.7493 52.5649 72.7493ZM58.2251 75.241Q58.2251 76.4231 57.6274 77.0867Q57.0298 77.7502 55.9751 77.7502Q55.3203 77.7502 54.8149 77.4448Q54.3096 77.1394 54.0371 76.5681Q53.7646 75.9968 53.7646 75.241Q53.7646 74.0632 54.3535 73.4062Q54.9424 72.7493 56.0059 72.7493Q57.0254 72.7493 57.6252 73.4194Q58.2251 74.0896 58.2251 75.241ZM54.582 75.241Q54.582 76.1506 54.9402 76.623Q55.2983 77.0955 55.9971 77.0955Q56.687 77.0955 57.0474 76.623Q57.4077 76.1506 57.4077 75.241Q57.4077 74.3313 57.0452 73.8721Q56.6826 73.4128 55.9839 73.4128Q54.582 73.4128 54.582 75.241Z"></path><path     fill="#687586"  d="M70.3848 64.5271L68.5742 64.5271L68.5742 60.8298L65.1816 60.8298L65.1816 64.5271L63.3652 64.5271L63.3652 55.9607L65.1816 55.9607L65.1816 59.3181L68.5742 59.3181L68.5742 55.9607L70.3848 55.9607L70.3848 64.5271ZM77.0469 64.5271L76.8066 63.6892L76.7129 63.6892Q76.4258 64.1462 75.8984 64.3953Q75.3711 64.6443 74.6973 64.6443Q73.543 64.6443 72.957 64.0261Q72.3711 63.408 72.3711 62.2478L72.3711 57.9763L74.1582 57.9763L74.1582 61.8025Q74.1582 62.5115 74.4102 62.866Q74.6621 63.2205 75.2129 63.2205Q75.9629 63.2205 76.2969 62.7195Q76.6309 62.2185 76.6309 61.0583L76.6309 57.9763L78.418 57.9763L78.418 64.5271L77.0469 64.5271ZM83.9375 57.8533Q85.0977 57.8533 85.7539 58.7585Q86.4102 59.6638 86.4102 61.24Q86.4102 62.863 85.7334 63.7537Q85.0566 64.6443 83.8906 64.6443Q82.7363 64.6443 82.0801 63.8064L81.957 63.8064L81.6582 64.5271L80.293 64.5271L80.293 55.4099L82.0801 55.4099L82.0801 57.531Q82.0801 57.9353 82.0098 58.8259L82.0801 58.8259Q82.707 57.8533 83.9375 57.8533ZM83.3633 59.283Q82.7012 59.283 82.3965 59.6902Q82.0918 60.0974 82.0801 61.0349L82.0801 61.2283Q82.0801 62.283 82.3936 62.74Q82.707 63.197 83.3867 63.197Q83.9375 63.197 84.2627 62.6902Q84.5879 62.1833 84.5879 61.2166Q84.5879 60.2498 84.2598 59.7664Q83.9316 59.283 83.3633 59.283Z"></path><path     fill="#808080"  d="M63.0459 70.1785L63.6919 70.1785L63.6919 79.1521L63.0459 79.1521L63.0459 70.1785ZM62.4922 72.0637ZM62.4702 69.594ZM63.0459 80.0706Z"></path><path     fill="#E74F10"  d="M72.7769 74.4494L74.8559 74.4494L74.8559 75.0434L72.7769 75.0434L72.7769 74.4494ZM74.7569 70.0394L73.8839 70.2284C74.1179 71.1104 74.3789 71.7944 74.6669 72.3434L73.0739 72.3434C73.3619 71.8034 73.5869 71.1824 73.7309 70.4804L73.1189 70.2734L72.9479 70.3094L71.4359 70.3094L71.4359 71.2184L72.5609 71.2184C72.4799 71.4254 72.3899 71.6324 72.2819 71.8304L71.6609 71.4073L71.1299 72.0464L71.1299 71.6954L70.3649 71.6954L70.3649 70.0124L69.4109 70.0124L69.4109 71.6954L68.3939 71.6954L68.3939 72.6944L69.3749 72.6944C69.1499 73.7834 68.6909 75.0524 68.1959 75.7543C68.3579 76.0154 68.5739 76.4743 68.6729 76.7624C68.9429 76.3304 69.1949 75.7274 69.4109 75.0434L69.4109 78.4634L70.3649 78.4634L70.3649 74.4674C70.5539 74.8634 70.7249 75.2684 70.8239 75.5474L71.4359 74.7644C71.2829 74.4944 70.6259 73.4324 70.3649 73.0724L70.3649 72.6944L71.1299 72.6944L71.1299 72.0644C71.3279 72.2084 71.5709 72.3793 71.7869 72.5504C71.4899 72.8923 71.1569 73.1804 70.7879 73.3694C70.9949 73.5583 71.2559 73.9184 71.3729 74.1524C71.5259 74.0624 71.6699 73.9634 71.8049 73.8554L71.8049 75.8804L74.5499 75.8804C74.4239 76.3124 74.2079 76.8704 74.0189 77.2754L72.8039 77.2754L73.4159 77.0954C73.3709 76.7534 73.1909 76.2494 72.9839 75.8894L72.0569 76.1504C72.2279 76.5014 72.3629 76.9514 72.4169 77.2754L70.9859 77.2754L70.9859 78.1844L76.7099 78.1844L76.7099 77.2754L75.0899 77.2754C75.2789 76.9333 75.4859 76.5284 75.6839 76.1234L74.8199 75.8804L75.8819 75.8804L75.8819 73.8824L76.2329 74.1614C76.3769 73.8643 76.6559 73.5404 76.9169 73.3424C76.5659 73.1174 76.2599 72.8654 75.9719 72.5504L76.7999 72.0914L76.1069 71.3624C75.9539 71.5154 75.7289 71.7133 75.5039 71.8934L75.3059 71.5244L76.1519 70.9844L75.4769 70.2823C75.3509 70.4174 75.1709 70.5794 74.9819 70.7414C74.9009 70.5254 74.8289 70.2914 74.7569 70.0394ZM72.7499 72.8654L72.7499 73.2254L74.8649 73.2254L74.8649 72.6944C75.0809 73.0453 75.3149 73.3424 75.5759 73.6034L72.1109 73.6034C72.3449 73.3874 72.5609 73.1354 72.7499 72.8654ZM78.1139 70.7684C78.5099 71.4794 78.9149 72.4154 79.0499 73.0004L80.1029 72.5774C79.9499 71.9743 79.4999 71.0834 79.0949 70.3994L78.1139 70.7684ZM83.9459 70.3363C83.7119 71.0564 83.2799 71.9924 82.9109 72.5954L83.8469 72.9554C84.2339 72.3974 84.6929 71.5244 85.0889 70.7234L83.9459 70.3363ZM80.9399 70.0124L80.9399 73.3154L77.4659 73.3154L77.4659 74.3324L79.6709 74.3324C79.5449 75.8174 79.3109 76.9154 77.2319 77.5364C77.4749 77.7523 77.7719 78.1934 77.8889 78.4814C80.2649 77.6804 80.6699 76.2314 80.8319 74.3324L82.1099 74.3324L82.1099 77.0594C82.1099 78.1034 82.3709 78.4364 83.3879 78.4364C83.5769 78.4364 84.2609 78.4364 84.4679 78.4364C85.3589 78.4364 85.6379 78.0134 85.7459 76.4384C85.4579 76.3664 84.9899 76.1774 84.7559 75.9974C84.7199 77.2304 84.6659 77.4284 84.3689 77.4284C84.2069 77.4284 83.6759 77.4284 83.5409 77.4284C83.2529 77.4284 83.1989 77.3744 83.1989 77.0504L83.1989 74.3324L85.6019 74.3324L85.6019 73.3154L82.0379 73.3154L82.0379 70.0124L80.9399 70.0124Z"></path></g><defs><linearGradient id="linear_fill_3_2_0" x1="63.06768798828125" y1="25.455352783203125" x2="70.8690185546875" y2="5.496978759765625" gradientUnits="userSpaceOnUse"><stop offset="0" stop-color="#25B8E1"  /><stop offset="1" stop-color="#8AD2F3" stop-opacity="0" /></linearGradient><filter id="filter_3_2" x="35.33111572265625" y="8.10052490234375" width="41.90570068359375" height="51.798980712890625" filterUnits="userSpaceOnUse" color-interpolation-filters="sRGB"><feFlood flood-opacity="0" result="feFloodId_3_2"/><feColorMatrix in="SourceAlpha" type="matrix" values="0 0 0 0 0 0 0 0 0 0 0 0 0 0 0 0 0 0 127 0" result="hardAlpha_3_2"/><feOffset dx="0" dy="2"/><feGaussianBlur stdDeviation="2"/><feComposite in2="hardAlpha_3_2" operator="out"/><feColorMatrix type="matrix" values="0 0 0 0 0 0 0 0 0 0 0 0 0 0 0 0 0 0 0.25 0"/><feBlend mode="normal" in2="feFloodId_3_2" result="dropShadow_1_3_2"/><feBlend mode="normal" in="SourceGraphic" in2="dropShadow_1_3_2" result="shape_3_2"/></filter><linearGradient id="linear_fill_3_3_0" x1="39.74298095703125" y1="25.9686279296875" x2="34.0107421875" y2="64" gradientUnits="userSpaceOnUse"><stop offset="0" stop-color="#002BC8"  /><stop offset="1" stop-color="#FBFBF6"  /></linearGradient><filter id="filter_3_3" x="23.76318359375" y="8.100494384765625" width="41.90570068359375" height="51.79901123046875" filterUnits="userSpaceOnUse" color-interpolation-filters="sRGB"><feFlood flood-opacity="0" result="feFloodId_3_3"/><feColorMatrix in="SourceAlpha" type="matrix" values="0 0 0 0 0 0 0 0 0 0 0 0 0 0 0 0 0 0 127 0" result="hardAlpha_3_3"/><feOffset dx="0" dy="2"/><feGaussianBlur stdDeviation="2"/><feComposite in2="hardAlpha_3_3" operator="out"/><feColorMatrix type="matrix" values="0 0 0 0 0 0 0 0 0 0 0 0 0 0 0 0 0 0 0.25 0"/><feBlend mode="normal" in2="feFloodId_3_3" result="dropShadow_1_3_3"/><feBlend mode="normal" in="SourceGraphic" in2="dropShadow_1_3_3" result="shape_3_3"/></filter></defs></svg>