<svg xmlns="http://www.w3.org/2000/svg" xmlns:xlink="http://www.w3.org/1999/xlink" width="151.31573486328125" height="64" viewBox="0 0 151.31573486328125 64" fill="none"><g style="mix-blend-mode:darken" opacity="0.8"><g filter="url(#filter_1_7)"><path     fill="url(#linear_fill_1_7_0)"  d="M29.7239 24.6487L44.3604 14.3111C50.3219 10.1005 58.5526 14.3638 58.5526 21.6624L58.5526 42.3377C58.5526 49.6362 50.3219 53.8995 44.3604 49.6889L29.7239 39.3513C24.6468 35.7654 24.6468 28.2347 29.7239 24.6487Z"></path></g></g><g style="mix-blend-mode:darken" opacity="0.8"><g filter="url(#filter_1_6)"><path     fill="url(#linear_fill_1_6_0)" fill-opacity="0.9" d="M41.9075 39.3513L27.2711 49.6889C21.3096 53.8995 13.0789 49.6362 13.0789 42.3376L13.0789 21.6623C13.0789 14.3638 21.3096 10.1005 27.2711 14.3111L41.9075 24.6487C46.9846 28.2347 46.9846 35.7653 41.9075 39.3513Z"></path></g></g><g ><path     fill="#000000"  d="M73.0443 30.5271L70.7357 30.5271L67.0091 24.0466L66.9564 24.0466Q67.0677 25.7634 67.0677 26.4958L67.0677 30.5271L65.4446 30.5271L65.4446 21.9607L67.7357 21.9607L71.4564 28.3767L71.4974 28.3767Q71.4095 26.7068 71.4095 26.0154L71.4095 21.9607L73.0443 21.9607L73.0443 30.5271ZM77.7728 25.1248Q77.2044 25.1248 76.8821 25.4851Q76.5599 25.8455 76.513 26.5076L79.0208 26.5076Q79.0091 25.8455 78.6751 25.4851Q78.3411 25.1248 77.7728 25.1248ZM78.0247 30.6443Q76.4427 30.6443 75.5521 29.7712Q74.6614 28.8982 74.6614 27.2986Q74.6614 25.6521 75.4847 24.7527Q76.3079 23.8533 77.761 23.8533Q79.1497 23.8533 79.9232 24.6443Q80.6966 25.4353 80.6966 26.8298L80.6966 27.697L76.472 27.697Q76.5013 28.4587 76.9232 28.8865Q77.345 29.3142 78.1068 29.3142Q78.6985 29.3142 79.2259 29.1912Q79.7532 29.0681 80.3275 28.7986L80.3275 30.1814Q79.8587 30.4158 79.3255 30.53Q78.7923 30.6443 78.0247 30.6443ZM85.7943 23.8533Q86.9544 23.8533 87.6107 24.7585Q88.2669 25.6638 88.2669 27.24Q88.2669 28.863 87.5901 29.7537Q86.9134 30.6443 85.7474 30.6443Q84.5931 30.6443 83.9368 29.8064L83.8138 29.8064L83.515 30.5271L82.1497 30.5271L82.1497 21.4099L83.9368 21.4099L83.9368 23.531Q83.9368 23.9353 83.8665 24.8259L83.9368 24.8259Q84.5638 23.8533 85.7943 23.8533ZM85.22 25.283Q84.5579 25.283 84.2532 25.6902Q83.9485 26.0974 83.9368 27.0349L83.9368 27.2283Q83.9368 28.283 84.2503 28.74Q84.5638 29.197 85.2435 29.197Q85.7943 29.197 86.1194 28.6902Q86.4446 28.1833 86.4446 27.2166Q86.4446 26.2498 86.1165 25.7664Q85.7884 25.283 85.22 25.283ZM94.3841 30.5271L94.1439 29.6892L94.0501 29.6892Q93.763 30.1462 93.2357 30.3953Q92.7083 30.6443 92.0345 30.6443Q90.8802 30.6443 90.2943 30.0261Q89.7083 29.408 89.7083 28.2478L89.7083 23.9763L91.4954 23.9763L91.4954 27.8025Q91.4954 28.5115 91.7474 28.866Q91.9993 29.2205 92.5501 29.2205Q93.3001 29.2205 93.6341 28.7195Q93.9681 28.2185 93.9681 27.0583L93.9681 23.9763L95.7552 23.9763L95.7552 30.5271L94.3841 30.5271ZM99.4173 30.5271L97.6302 30.5271L97.6302 21.4099L99.4173 21.4099L99.4173 30.5271ZM105.452 30.5271L105.107 29.6365L105.06 29.6365Q104.609 30.2048 104.131 30.4246Q103.654 30.6443 102.886 30.6443Q101.943 30.6443 101.401 30.1052Q100.859 29.5662 100.859 28.5701Q100.859 27.5271 101.588 27.032Q102.318 26.5369 103.788 26.4841L104.925 26.449L104.925 26.1619Q104.925 25.1658 103.906 25.1658Q103.12 25.1658 102.06 25.6404L101.468 24.4333Q102.599 23.8416 103.976 23.8416Q105.294 23.8416 105.997 24.4158Q106.701 24.99 106.701 26.1619L106.701 30.5271L105.452 30.5271ZM104.925 27.4919L104.234 27.5154Q103.454 27.5388 103.074 27.7966Q102.693 28.0544 102.693 28.5818Q102.693 29.3376 103.56 29.3376Q104.181 29.3376 104.553 28.9802Q104.925 28.6228 104.925 28.031L104.925 27.4919ZM71.2586 43.6624L70.3138 43.6624L66.8729 38.3274L66.8377 38.3274L66.8597 38.6833Q66.9124 39.4832 66.9124 40.072L66.9124 43.6624L66.1653 43.6624L66.1653 37.2375L67.1014 37.2375L67.2991 37.5496L69.4085 40.8103L70.5291 42.5549L70.5643 42.5549Q70.5555 42.4495 70.5291 41.8013Q70.5027 41.1531 70.5027 40.863L70.5027 37.2375L71.2586 37.2375L71.2586 43.6624ZM77.0858 41.241Q77.0858 42.4231 76.4881 43.0867Q75.8904 43.7502 74.8358 43.7502Q74.181 43.7502 73.6756 43.4448Q73.1702 43.1394 72.8978 42.5681Q72.6253 41.9968 72.6253 41.241Q72.6253 40.0632 73.2142 39.4062Q73.803 38.7493 74.8665 38.7493Q75.886 38.7493 76.4859 39.4194Q77.0858 40.0896 77.0858 41.241ZM73.4427 41.241Q73.4427 42.1506 73.8008 42.623Q74.159 43.0955 74.8577 43.0955Q75.5477 43.0955 75.908 42.623Q76.2684 42.1506 76.2684 41.241Q76.2684 40.3313 75.9058 39.8721Q75.5433 39.4128 74.8445 39.4128Q73.4427 39.4128 73.4427 41.241ZM79.4017 43.6624L77.5735 38.8372L78.4217 38.8372L79.4456 41.6804Q79.7488 42.5374 79.8323 42.9592L79.8675 42.9592Q79.8807 42.9021 79.9005 42.8296Q79.9202 42.7571 79.9466 42.6714Q79.973 42.5857 80.2718 41.6804L81.3001 38.8372L82.1439 38.8372L80.3113 43.6624L79.4017 43.6624ZM85.888 43.6624L85.7342 42.9768L85.699 42.9768Q85.3387 43.4294 84.9805 43.5898Q84.6224 43.7502 84.0775 43.7502Q83.3655 43.7502 82.9612 43.3767Q82.5569 43.0032 82.5569 42.322Q82.5569 40.8542 84.8729 40.7839L85.6902 40.7532L85.6902 40.4675Q85.6902 39.9182 85.4529 39.6567Q85.2156 39.3953 84.6927 39.3953Q84.3104 39.3953 83.9698 39.5095Q83.6292 39.6238 83.3304 39.7644L83.0887 39.1711Q83.4534 38.9778 83.8841 38.8679Q84.3148 38.7581 84.7366 38.7581Q85.6111 38.7581 86.0374 39.1448Q86.4637 39.5315 86.4637 40.3752L86.4637 43.6624L85.888 43.6624ZM84.2576 43.113Q84.9212 43.113 85.3013 42.7549Q85.6815 42.3967 85.6815 41.7375L85.6815 41.3025L84.9695 41.3333Q84.139 41.364 83.7589 41.5969Q83.3787 41.8298 83.3787 42.3308Q83.3787 42.7087 83.6094 42.9109Q83.8401 43.113 84.2576 43.113ZM94.409 39.1272Q94.409 40.1116 93.7366 40.6367Q93.0643 41.1619 91.8426 41.1619L91.1043 41.1619L91.1043 43.6624L90.2957 43.6624L90.2957 37.2375L91.9964 37.2375Q94.409 37.2375 94.409 39.1272ZM91.1043 40.4675L91.7503 40.4675Q92.7083 40.4675 93.139 40.1577Q93.5696 39.8479 93.5696 39.1624Q93.5696 38.5427 93.1697 38.2351Q92.7698 37.9275 91.9217 37.9275L91.1043 37.9275L91.1043 40.4675ZM97.8807 38.7493Q98.2015 38.7493 98.4476 38.802L98.3509 39.5315Q98.0828 39.47 97.8279 39.47Q97.4456 39.47 97.1182 39.6809Q96.7908 39.8918 96.6063 40.2632Q96.4217 40.6345 96.4217 41.0872L96.4217 43.6624L95.6307 43.6624L95.6307 38.8372L96.2811 38.8372L96.369 39.7205L96.4041 39.7205Q96.681 39.2415 97.0589 38.9954Q97.4368 38.7493 97.8807 38.7493ZM103.541 41.241Q103.541 42.4231 102.943 43.0867Q102.346 43.7502 101.291 43.7502Q100.636 43.7502 100.131 43.4448Q99.6253 43.1394 99.3528 42.5681Q99.0804 41.9968 99.0804 41.241Q99.0804 40.0632 99.6693 39.4062Q100.258 38.7493 101.322 38.7493Q102.341 38.7493 102.941 39.4194Q103.541 40.0896 103.541 41.241ZM99.8978 41.241Q99.8978 42.1506 100.256 42.623Q100.614 43.0955 101.313 43.0955Q102.003 43.0955 102.363 42.623Q102.723 42.1506 102.723 41.241Q102.723 40.3313 102.361 39.8721Q101.998 39.4128 101.3 39.4128Q99.8978 39.4128 99.8978 41.241Z"></path><path     fill="#687586"  d="M115.701 30.5271L113.89 30.5271L113.89 26.8298L110.497 26.8298L110.497 30.5271L108.681 30.5271L108.681 21.9607L110.497 21.9607L110.497 25.3181L113.89 25.3181L113.89 21.9607L115.701 21.9607L115.701 30.5271ZM122.363 30.5271L122.122 29.6892L122.029 29.6892Q121.742 30.1462 121.214 30.3953Q120.687 30.6443 120.013 30.6443Q118.859 30.6443 118.273 30.0261Q117.687 29.408 117.687 28.2478L117.687 23.9763L119.474 23.9763L119.474 27.8025Q119.474 28.5115 119.726 28.866Q119.978 29.2205 120.529 29.2205Q121.279 29.2205 121.613 28.7195Q121.947 28.2185 121.947 27.0583L121.947 23.9763L123.734 23.9763L123.734 30.5271L122.363 30.5271ZM129.253 23.8533Q130.413 23.8533 131.07 24.7585Q131.726 25.6638 131.726 27.24Q131.726 28.863 131.049 29.7537Q130.372 30.6443 129.206 30.6443Q128.052 30.6443 127.396 29.8064L127.273 29.8064L126.974 30.5271L125.609 30.5271L125.609 21.4099L127.396 21.4099L127.396 23.531Q127.396 23.9353 127.326 24.8259L127.396 24.8259Q128.023 23.8533 129.253 23.8533ZM128.679 25.283Q128.017 25.283 127.712 25.6902Q127.408 26.0974 127.396 27.0349L127.396 27.2283Q127.396 28.283 127.709 28.74Q128.023 29.197 128.702 29.197Q129.253 29.197 129.578 28.6902Q129.904 28.1833 129.904 27.2166Q129.904 26.2498 129.576 25.7664Q129.247 25.283 128.679 25.283Z"></path><path     fill="#808080"  d="M108.362 36.1785L109.008 36.1785L109.008 45.1521L108.362 45.1521L108.362 36.1785ZM107.808 38.0637ZM107.786 35.594ZM108.362 46.0706Z"></path><path     fill="#E74F10"  d="M118.093 40.4494L120.172 40.4494L120.172 41.0434L118.093 41.0434L118.093 40.4494ZM120.073 36.0394L119.2 36.2284C119.434 37.1104 119.695 37.7944 119.983 38.3434L118.39 38.3434C118.678 37.8034 118.903 37.1824 119.047 36.4804L118.435 36.2734L118.264 36.3094L116.752 36.3094L116.752 37.2184L117.877 37.2184C117.796 37.4254 117.706 37.6324 117.598 37.8304L116.977 37.4074L116.446 38.0464L116.446 37.6954L115.681 37.6954L115.681 36.0124L114.727 36.0124L114.727 37.6954L113.71 37.6954L113.71 38.6944L114.691 38.6944C114.466 39.7834 114.007 41.0524 113.512 41.7544C113.674 42.0154 113.89 42.4744 113.989 42.7624C114.259 42.3304 114.511 41.7274 114.727 41.0434L114.727 44.4634L115.681 44.4634L115.681 40.4674C115.87 40.8634 116.041 41.2684 116.14 41.5474L116.752 40.7644C116.599 40.4944 115.942 39.4324 115.681 39.0724L115.681 38.6944L116.446 38.6944L116.446 38.0644C116.644 38.2084 116.887 38.3794 117.103 38.5504C116.806 38.8924 116.473 39.1804 116.104 39.3694C116.311 39.5584 116.572 39.9184 116.689 40.1524C116.842 40.0624 116.986 39.9634 117.121 39.8554L117.121 41.8804L119.866 41.8804C119.74 42.3124 119.524 42.8704 119.335 43.2754L118.12 43.2754L118.732 43.0954C118.687 42.7534 118.507 42.2494 118.3 41.8894L117.373 42.1504C117.544 42.5014 117.679 42.9514 117.733 43.2754L116.302 43.2754L116.302 44.1844L122.026 44.1844L122.026 43.2754L120.406 43.2754C120.595 42.9334 120.802 42.5284 121 42.1234L120.136 41.8804L121.198 41.8804L121.198 39.8824L121.549 40.1614C121.693 39.8644 121.972 39.5404 122.233 39.3424C121.882 39.1174 121.576 38.8654 121.288 38.5504L122.116 38.0914L121.423 37.3624C121.27 37.5154 121.045 37.7134 120.82 37.8934L120.622 37.5244L121.468 36.9844L120.793 36.2824C120.667 36.4174 120.487 36.5794 120.298 36.7414C120.217 36.5254 120.145 36.2914 120.073 36.0394ZM118.066 38.8654L118.066 39.2254L120.181 39.2254L120.181 38.6944C120.397 39.0454 120.631 39.3424 120.892 39.6034L117.427 39.6034C117.661 39.3874 117.877 39.1354 118.066 38.8654ZM123.43 36.7684C123.826 37.4794 124.231 38.4154 124.366 39.0004L125.419 38.5774C125.266 37.9744 124.816 37.0834 124.411 36.3994L123.43 36.7684ZM129.262 36.3364C129.028 37.0564 128.596 37.9924 128.227 38.5954L129.163 38.9554C129.55 38.3974 130.009 37.5244 130.405 36.7234L129.262 36.3364ZM126.256 36.0124L126.256 39.3154L122.782 39.3154L122.782 40.3324L124.987 40.3324C124.861 41.8174 124.627 42.9154 122.548 43.5364C122.791 43.7524 123.088 44.1934 123.205 44.4814C125.581 43.6804 125.986 42.2314 126.148 40.3324L127.426 40.3324L127.426 43.0594C127.426 44.1034 127.687 44.4364 128.704 44.4364C128.893 44.4364 129.577 44.4364 129.784 44.4364C130.675 44.4364 130.954 44.0134 131.062 42.4384C130.774 42.3664 130.306 42.1774 130.072 41.9974C130.036 43.2304 129.982 43.4284 129.685 43.4284C129.523 43.4284 128.992 43.4284 128.857 43.4284C128.569 43.4284 128.515 43.3744 128.515 43.0504L128.515 40.3324L130.918 40.3324L130.918 39.3154L127.354 39.3154L127.354 36.0124L126.256 36.0124Z"></path></g><defs><linearGradient id="linear_fill_1_7_0" x1="48.3834228515625" y1="25.455368041992188" x2="56.18475341796875" y2="5.496978759765625" gradientUnits="userSpaceOnUse"><stop offset="0" stop-color="#25B8E1"  /><stop offset="1" stop-color="#8AD2F3" stop-opacity="0" /></linearGradient><filter id="filter_1_7" x="20.6468505859375" y="8.10052490234375" width="41.90570068359375" height="51.798980712890625" filterUnits="userSpaceOnUse" color-interpolation-filters="sRGB"><feFlood flood-opacity="0" result="feFloodId_1_7"/><feColorMatrix in="SourceAlpha" type="matrix" values="0 0 0 0 0 0 0 0 0 0 0 0 0 0 0 0 0 0 127 0" result="hardAlpha_1_7"/><feOffset dx="0" dy="2"/><feGaussianBlur stdDeviation="2"/><feComposite in2="hardAlpha_1_7" operator="out"/><feColorMatrix type="matrix" values="0 0 0 0 0 0 0 0 0 0 0 0 0 0 0 0 0 0 0.25 0"/><feBlend mode="normal" in2="feFloodId_1_7" result="dropShadow_1_1_7"/><feBlend mode="normal" in="SourceGraphic" in2="dropShadow_1_1_7" result="shape_1_7"/></filter><linearGradient id="linear_fill_1_6_0" x1="25.0587158203125" y1="25.968643188476562" x2="19.32647705078125" y2="64" gradientUnits="userSpaceOnUse"><stop offset="0" stop-color="#002BC8"  /><stop offset="1" stop-color="#FBFBF6"  /></linearGradient><filter id="filter_1_6" x="9.07891845703125" y="8.100494384765625" width="41.90570068359375" height="51.79901123046875" filterUnits="userSpaceOnUse" color-interpolation-filters="sRGB"><feFlood flood-opacity="0" result="feFloodId_1_6"/><feColorMatrix in="SourceAlpha" type="matrix" values="0 0 0 0 0 0 0 0 0 0 0 0 0 0 0 0 0 0 127 0" result="hardAlpha_1_6"/><feOffset dx="0" dy="2"/><feGaussianBlur stdDeviation="2"/><feComposite in2="hardAlpha_1_6" operator="out"/><feColorMatrix type="matrix" values="0 0 0 0 0 0 0 0 0 0 0 0 0 0 0 0 0 0 0.25 0"/><feBlend mode="normal" in2="feFloodId_1_6" result="dropShadow_1_1_6"/><feBlend mode="normal" in="SourceGraphic" in2="dropShadow_1_1_6" result="shape_1_6"/></filter></defs></svg>